<svg width="64" height="64" viewBox="0 0 64 64" fill="none" xmlns="http://www.w3.org/2000/svg">
<path d="M22.7392 45.1409L32.1433 35.7368L41.5474 45.1409L45.2046 41.4838L35.8005 32.0796L45.2046 22.6755L41.5474 19.0183L32.1433 28.4224L22.7392 19.0183L19.082 22.6755L28.4861 32.0796L19.082 41.4838L22.7392 45.1409ZM32.1433 58.2022C28.5297 58.2022 25.1337 57.5161 21.9555 56.1438C18.7772 54.7715 16.0126 52.9107 13.6616 50.5614C11.3105 48.2121 9.44972 45.4474 8.07916 42.2674C6.70859 39.0874 6.02244 35.6915 6.02069 32.0796C6.01895 28.4677 6.70511 25.0718 8.07916 21.8918C9.45321 18.7118 11.314 15.9472 13.6616 13.5979C16.0091 11.2486 18.7738 9.38777 21.9555 8.01546C25.1372 6.64315 28.5332 5.957 32.1433 5.957C35.7535 5.957 39.1494 6.64315 42.3311 8.01546C45.5129 9.38777 48.2775 11.2486 50.6251 13.5979C52.9726 15.9472 54.8343 18.7118 56.2101 21.8918C57.5859 25.0718 58.2711 28.4677 58.2659 32.0796C58.2607 35.6915 57.5745 39.0874 56.2075 42.2674C54.8404 45.4474 52.9796 48.2121 50.6251 50.5614C48.2705 52.9107 45.5059 54.7723 42.3311 56.1464C39.1564 57.5204 35.7604 58.2057 32.1433 58.2022Z" fill="#E60023"/>
</svg>
