<svg width="63" height="63" viewBox="0 0 63 63" fill="none" xmlns="http://www.w3.org/2000/svg">
<path d="M14.9507 52.5191C13.7473 52.5191 12.7434 52.1168 11.9388 51.3123C11.1342 50.5077 10.7311 49.5028 10.7293 48.2977V14.9444C10.7293 13.741 11.1325 12.737 11.9388 11.9324C12.7451 11.1278 13.7491 10.7247 14.9507 10.7229H40.9715L52.5255 22.277V48.3003C52.5255 49.502 52.1232 50.5059 51.3186 51.3123C50.514 52.1186 49.5092 52.5209 48.3041 52.5191H14.9507ZM14.9507 49.9069H48.3067C48.7752 49.9069 49.16 49.7562 49.4613 49.4549C49.7626 49.1537 49.9132 48.7688 49.9132 48.3003V23.7843H39.4642V13.3352H14.9507C14.4805 13.3352 14.0948 13.4858 13.7935 13.7871C13.4922 14.0884 13.3416 14.4742 13.3416 14.9444V48.3003C13.3416 48.7688 13.4922 49.1537 13.7935 49.4549C14.0948 49.7562 14.4805 49.9069 14.9507 49.9069ZM19.8722 42.0701H43.3826V39.4578H19.8722V42.0701ZM19.8722 23.7843H31.6274V21.172H19.8722V23.7843ZM19.8722 32.9272H43.3826V30.3149H19.8722V32.9272Z" fill="#12294A"/>
</svg>
