<svg width="55" height="56" viewBox="0 0 55 56" fill="none" xmlns="http://www.w3.org/2000/svg">
<path d="M23.5848 40.5673L42.7234 21.4286L38.9229 17.628L23.5848 32.9661L15.8479 25.2292L12.0473 29.0298L23.5848 40.5673ZM27.3854 55.2267C23.63 55.2267 20.1009 54.5136 16.798 53.0875C13.4951 51.6614 10.6221 49.7276 8.17885 47.2862C5.73562 44.8447 3.80185 41.9717 2.37753 38.667C0.953218 35.3623 0.240156 31.8332 0.238346 28.0796C0.236536 24.3261 0.949598 20.797 2.37753 17.4923C3.80547 14.1876 5.73924 11.3145 8.17885 8.87311C10.6185 6.43169 13.4915 4.49791 16.798 3.07179C20.1045 1.64566 23.6337 0.932602 27.3854 0.932602C31.1371 0.932602 34.6662 1.64566 37.9727 3.07179C41.2792 4.49791 44.1523 6.43169 46.5919 8.87311C49.0315 11.3145 50.9662 14.1876 52.3959 17.4923C53.8257 20.797 54.5378 24.3261 54.5324 28.0796C54.527 31.8332 53.8139 35.3623 52.3932 38.667C50.9725 41.9717 49.0388 44.8447 46.5919 47.2862C44.145 49.7276 41.272 51.6623 37.9727 53.0902C34.6734 54.5181 31.1443 55.2303 27.3854 55.2267Z" fill="#0F9A03"/>
</svg>
