<svg width="45" height="48" viewBox="0 0 45 48" fill="none" xmlns="http://www.w3.org/2000/svg">
<path d="M34.1868 47.375C31.3537 47.375 28.951 46.3888 26.9787 44.4165C25.0063 42.4408 24.0202 40.0381 24.0202 37.2083C24.0202 34.3786 25.0063 31.9767 26.9787 30.0027C28.951 28.0287 31.3529 27.0417 34.1843 27.0417C37.0174 27.0417 39.4201 28.0287 41.3925 30.0027C43.3665 31.975 44.3535 34.3769 44.3535 37.2083C44.3535 40.0397 43.3665 42.4425 41.3925 44.4165C39.4184 46.3905 37.0166 47.3767 34.1868 47.375ZM38.3933 42.8051L39.781 41.4173L35.1628 36.789V29.8756H33.2083V37.6201L38.3933 42.8051ZM0.166626 44.8333V4.16666H16.0571C16.2943 3.17372 16.8222 2.3392 17.6406 1.66312C18.459 0.985343 19.4121 0.646454 20.5 0.646454C21.6081 0.646454 22.5689 0.985343 23.3822 1.66312C24.1955 2.33751 24.7208 3.17202 24.958 4.16666H40.8333V23.5723C40.3961 23.3469 39.9827 23.1495 39.593 22.9801C39.2032 22.8106 38.7695 22.659 38.2916 22.5251V6.70833H30.6666V12.3762H10.3333V6.70833H2.70829V42.2917H19.8442C19.9798 42.7661 20.1399 43.2075 20.3246 43.6159C20.511 44.0225 20.7482 44.4284 21.0363 44.8333H0.166626ZM20.5076 7.29291C21.0922 7.29291 21.5793 7.09636 21.969 6.70325C22.3588 6.30844 22.5536 5.81875 22.5536 5.23416C22.5536 4.64958 22.3554 4.16243 21.9589 3.7727C21.5624 3.38298 21.0735 3.18812 20.4923 3.18812C19.9111 3.18812 19.424 3.38637 19.0309 3.78287C18.6378 4.17937 18.4429 4.66906 18.4463 5.25195C18.4497 5.83484 18.6471 6.32115 19.0385 6.71087C19.4299 7.10059 19.9196 7.29291 20.5076 7.29291Z" fill="#0321E3"/>
</svg>
